# xmcd
#
# Track frame offsets: 
#        150
#        11291
#        24432
#        35033
#        47135
#        60870
#        73382
#        83404
#        95513
#        107667
#        122912
#        136168
#
# Disc length: 1970 seconds
#
# Revision: 4
# Processed by: cddbd v1.5.2PL0 Copyright (c) Steve Scherf et al.
# Submitted via: ExactAudioCopyFreeDBPlugin 1.0
#
DISCID=9507b00c
DTITLE=Marvin Gaye_Tammi Terrell - United_2016
DYEAR=1967
DGENRE=R&B
TTITLE0=Ain't No Mountain High Enough
TTITLE1=You Got What It Takes
TTITLE2=If I Could Build My Wrld Round U
TTITLE3=Somethin' Stupid
TTITLE4=Your Precious Love
TTITLE5=Hold Me Oh My Darling
TTITLE6=Two Can Have A Party
TTITLE7=Little Ole Boy_Little Ole Girl
TTITLE8=If This World Were Mine
TTITLE9=Sad Wedding
TTITLE10=Give A Little Love
TTITLE11=Oh How I'd Miss You
EXTD=YEAR: 1967
EXTT0=
EXTT1=
EXTT2=
EXTT3=
EXTT4=
EXTT5=
EXTT6=
EXTT7=
EXTT8=
EXTT9=
EXTT10=
EXTT11=
PLAYORDER=
